<?xml version="1.0" encoding="utf-8"?>
<!-- Generator: Adobe Illustrator 16.0.4, SVG Export Plug-In . SVG Version: 6.00 Build 0)  -->
<!DOCTYPE svg PUBLIC "-//W3C//DTD SVG 1.1//EN" "http://www.w3.org/Graphics/SVG/1.1/DTD/svg11.dtd">
<svg version="1.1" id="Layer_1" xmlns="http://www.w3.org/2000/svg" xmlns:xlink="http://www.w3.org/1999/xlink" x="0px" y="0px"
	 width="258.451px" height="22.462px" viewBox="0 0 258.451 22.462" enable-background="new 0 0 258.451 22.462"
	 xml:space="preserve">
<g>
	<path fill="#323232" d="M126.287,16.527c0.264,0,0.51-0.04,0.734-0.122c0.226-0.079,0.422-0.187,0.586-0.323
		c0.165-0.136,0.292-0.291,0.383-0.468c0.091-0.178,0.137-0.359,0.137-0.548c0-0.303-0.076-0.569-0.229-0.793
		c-0.151-0.226-0.351-0.427-0.598-0.606c-0.25-0.177-0.533-0.339-0.849-0.489c-0.314-0.147-0.638-0.3-0.969-0.46
		c-0.327-0.155-0.65-0.326-0.966-0.502c-0.316-0.177-0.6-0.387-0.846-0.623c-0.251-0.239-0.45-0.517-0.603-0.829
		c-0.151-0.313-0.228-0.679-0.228-1.1c0-0.393,0.084-0.759,0.253-1.097c0.168-0.338,0.4-0.63,0.701-0.875
		c0.3-0.246,0.656-0.439,1.069-0.576c0.412-0.138,0.864-0.209,1.354-0.209c0.328,0,0.634,0.022,0.92,0.068
		c0.284,0.043,0.562,0.131,0.838,0.261c0.273,0.129,0.546,0.315,0.815,0.556c0.273,0.242,0.559,0.557,0.862,0.944l-0.726,0.647
		c-0.374-0.612-0.792-1.068-1.254-1.37c-0.462-0.299-0.952-0.449-1.476-0.449c-0.285,0-0.543,0.034-0.774,0.102
		c-0.231,0.066-0.429,0.16-0.595,0.28c-0.164,0.12-0.293,0.26-0.387,0.421s-0.14,0.332-0.14,0.512c0,0.298,0.083,0.555,0.245,0.775
		c0.166,0.219,0.383,0.417,0.653,0.595c0.271,0.178,0.58,0.34,0.925,0.488c0.346,0.15,0.696,0.301,1.055,0.455
		c0.357,0.157,0.709,0.323,1.057,0.504c0.343,0.179,0.651,0.388,0.922,0.623c0.271,0.236,0.489,0.509,0.654,0.818
		c0.163,0.311,0.245,0.672,0.245,1.084c0,0.419-0.076,0.811-0.229,1.175c-0.155,0.365-0.392,0.681-0.702,0.949
		c-0.313,0.268-0.707,0.479-1.177,0.632c-0.471,0.158-1.024,0.234-1.664,0.234c-0.29,0-0.589-0.024-0.895-0.068
		c-0.309-0.045-0.614-0.135-0.925-0.266c-0.311-0.133-0.619-0.316-0.93-0.557c-0.311-0.238-0.613-0.55-0.909-0.938l0.803-0.726
		c0.239,0.335,0.467,0.621,0.687,0.856c0.22,0.235,0.444,0.429,0.674,0.582c0.229,0.15,0.464,0.261,0.706,0.327
		C125.739,16.495,126.003,16.527,126.287,16.527z"/>
	<path fill="#323232" d="M137.415,17.215c-0.76,0-1.461-0.132-2.1-0.397c-0.64-0.264-1.189-0.624-1.654-1.079
		c-0.466-0.455-0.829-0.987-1.09-1.597c-0.259-0.609-0.392-1.262-0.392-1.96c0-0.729,0.133-1.413,0.392-2.057
		c0.261-0.641,0.624-1.2,1.09-1.679c0.465-0.477,1.015-0.854,1.654-1.126c0.639-0.275,1.34-0.412,2.1-0.412
		c0.757,0,1.451,0.126,2.086,0.377c0.636,0.252,1.186,0.597,1.651,1.035c0.464,0.44,0.827,0.955,1.088,1.544
		c0.262,0.591,0.392,1.224,0.392,1.901c0,0.749-0.13,1.454-0.392,2.115c-0.261,0.663-0.624,1.239-1.088,1.733
		c-0.466,0.494-1.016,0.883-1.651,1.169C138.866,17.071,138.172,17.215,137.415,17.215z M137.793,16.489
		c0.387,0,0.741-0.1,1.063-0.3c0.324-0.198,0.603-0.469,0.834-0.807c0.232-0.339,0.412-0.732,0.542-1.177
		c0.127-0.445,0.193-0.915,0.193-1.412c0-0.716-0.061-1.387-0.185-2.014c-0.122-0.625-0.323-1.17-0.599-1.635
		c-0.277-0.465-0.64-0.831-1.085-1.097c-0.445-0.269-0.987-0.403-1.624-0.403c-0.329,0-0.649,0.096-0.96,0.287
		c-0.309,0.189-0.582,0.449-0.818,0.778c-0.233,0.33-0.424,0.715-0.563,1.156c-0.143,0.441-0.215,0.911-0.215,1.409
		c0,0.721,0.076,1.399,0.228,2.03c0.15,0.633,0.375,1.186,0.668,1.657c0.293,0.47,0.65,0.843,1.074,1.118
		C136.769,16.353,137.252,16.489,137.793,16.489z"/>
	<path fill="#323232" d="M147.402,7.091v7.056c0,0.244,0.058,0.477,0.17,0.696c0.112,0.219,0.271,0.411,0.468,0.571
		c0.202,0.161,0.432,0.289,0.693,0.382c0.262,0.093,0.543,0.14,0.847,0.14c0.193,0,0.401-0.042,0.625-0.126
		c0.223-0.082,0.44-0.197,0.653-0.343c0.211-0.145,0.41-0.315,0.595-0.513c0.183-0.197,0.342-0.403,0.469-0.624v-7.24h1.956v9.91
		h-1.956v-1.857c-0.174,0.285-0.392,0.551-0.653,0.803c-0.261,0.252-0.542,0.471-0.846,0.658s-0.618,0.336-0.938,0.446
		c-0.323,0.109-0.629,0.165-0.92,0.165c-0.434,0-0.839-0.083-1.219-0.242c-0.383-0.161-0.714-0.381-0.997-0.658
		c-0.284-0.278-0.508-0.604-0.672-0.978c-0.165-0.375-0.247-0.77-0.247-1.19V7.091H147.402z"/>
	<path fill="#323232" d="M159.442,3.724h0.561v3.367h2.206v0.843h-2.206v6.978c0,0.147,0.028,0.286,0.081,0.416
		c0.056,0.128,0.131,0.242,0.225,0.338s0.204,0.174,0.334,0.227c0.127,0.054,0.271,0.083,0.427,0.083
		c0.218,0,0.417-0.056,0.598-0.166c0.181-0.109,0.341-0.246,0.475-0.405l0.496,0.33c-0.273,0.458-0.626,0.818-1.057,1.083
		c-0.434,0.265-0.969,0.397-1.605,0.397c-0.329,0-0.617-0.057-0.862-0.169c-0.246-0.113-0.447-0.272-0.605-0.475
		c-0.158-0.204-0.275-0.446-0.354-0.727c-0.076-0.28-0.115-0.59-0.115-0.933V7.934h-1.721V7.566l1.721-0.475V4.276L159.442,3.724z"
		/>
	<path fill="#323232" d="M167.203,8.912c0.588-0.671,1.206-1.172,1.857-1.506c0.652-0.331,1.311-0.497,1.976-0.497
		c0.348,0,0.675,0.077,0.972,0.232c0.3,0.155,0.562,0.367,0.789,0.637c0.226,0.272,0.403,0.591,0.531,0.956
		c0.13,0.364,0.195,0.753,0.195,1.165v7.103h-1.964v-6.765c0-0.657-0.15-1.158-0.446-1.495c-0.297-0.337-0.678-0.508-1.142-0.508
		c-0.208,0-0.426,0.035-0.658,0.105c-0.232,0.072-0.468,0.171-0.706,0.295c-0.238,0.126-0.479,0.277-0.719,0.452
		c-0.236,0.174-0.466,0.367-0.686,0.578v7.336h-1.975V2.602l1.414-0.562h0.561V8.912z"/>
	<path fill="#323232" d="M185.263,17.215c-0.673,0-1.303-0.127-1.894-0.378c-0.591-0.252-1.104-0.594-1.544-1.027
		c-0.439-0.432-0.785-0.939-1.04-1.523c-0.255-0.585-0.382-1.206-0.382-1.863c0-0.792,0.115-1.526,0.348-2.202
		c0.231-0.674,0.561-1.256,0.988-1.746c0.425-0.49,0.938-0.875,1.533-1.152c0.598-0.277,1.264-0.416,1.997-0.416
		c0.646,0,1.24,0.115,1.781,0.343c0.543,0.229,1.009,0.537,1.399,0.921c0.389,0.383,0.691,0.825,0.91,1.328
		c0.216,0.504,0.324,1.03,0.324,1.578h-7.384c0,0.665,0.084,1.282,0.255,1.849c0.172,0.568,0.412,1.058,0.721,1.471
		c0.311,0.413,0.678,0.736,1.104,0.969c0.427,0.231,0.895,0.347,1.404,0.347c0.425,0,0.835-0.068,1.23-0.208
		c0.392-0.139,0.747-0.321,1.068-0.545c0.319-0.227,0.591-0.484,0.815-0.775c0.228-0.289,0.388-0.588,0.476-0.899l0.572,0.251
		c-0.143,0.51-0.373,0.985-0.688,1.431c-0.316,0.446-0.685,0.835-1.107,1.168c-0.422,0.332-0.883,0.595-1.381,0.787
		C186.273,17.118,185.771,17.215,185.263,17.215z M187.214,10.286c0-0.375-0.063-0.722-0.195-1.046
		c-0.132-0.322-0.314-0.602-0.549-0.835c-0.231-0.237-0.503-0.422-0.811-0.557c-0.311-0.136-0.645-0.204-0.999-0.204
		c-0.296,0-0.579,0.066-0.851,0.199c-0.271,0.132-0.513,0.317-0.726,0.553c-0.212,0.235-0.388,0.513-0.528,0.836
		c-0.138,0.321-0.22,0.67-0.245,1.044L187.214,10.286z"/>
	<path fill="#323232" d="M198.906,17.001c-0.257-0.129-0.475-0.311-0.653-0.546c-0.176-0.235-0.266-0.505-0.266-0.809
		c-0.232,0.174-0.46,0.357-0.683,0.542c-0.222,0.188-0.464,0.356-0.724,0.509c-0.262,0.152-0.554,0.276-0.874,0.373
		c-0.318,0.096-0.687,0.145-1.106,0.145c-0.388,0-0.736-0.063-1.051-0.189c-0.312-0.127-0.577-0.298-0.794-0.519
		c-0.217-0.219-0.384-0.479-0.502-0.782c-0.12-0.304-0.179-0.63-0.179-0.979c0-0.425,0.082-0.81,0.252-1.149
		c0.167-0.343,0.396-0.648,0.692-0.916c0.292-0.268,0.632-0.505,1.02-0.716c0.386-0.209,0.799-0.397,1.24-0.562
		c0.437-0.163,0.889-0.312,1.353-0.441c0.466-0.128,0.918-0.248,1.355-0.357v-0.62c0-0.452-0.032-0.831-0.097-1.143
		c-0.065-0.307-0.166-0.559-0.301-0.749c-0.134-0.189-0.308-0.327-0.517-0.407c-0.21-0.082-0.46-0.121-0.752-0.121
		c-0.275,0-0.532,0.055-0.763,0.165c-0.231,0.109-0.438,0.256-0.615,0.441c-0.178,0.181-0.323,0.399-0.437,0.647
		c-0.111,0.247-0.187,0.512-0.228,0.789h-1.799c0.052-0.427,0.198-0.806,0.44-1.143c0.242-0.336,0.548-0.618,0.914-0.846
		c0.368-0.229,0.785-0.406,1.254-0.529c0.468-0.122,0.952-0.183,1.456-0.183c0.646,0,1.188,0.063,1.625,0.189
		c0.441,0.125,0.792,0.301,1.056,0.527c0.265,0.225,0.454,0.502,0.567,0.829c0.113,0.326,0.169,0.684,0.169,1.079v6.114
		c0,0.304,0.088,0.574,0.266,0.809c0.177,0.235,0.396,0.417,0.653,0.546H198.906z M197.987,11.234
		c-0.285,0.09-0.575,0.193-0.88,0.31c-0.304,0.117-0.601,0.247-0.891,0.393c-0.291,0.145-0.567,0.301-0.834,0.469
		c-0.264,0.168-0.496,0.348-0.695,0.541c-0.2,0.194-0.359,0.397-0.475,0.611c-0.116,0.212-0.174,0.436-0.174,0.667
		c0,0.246,0.046,0.475,0.135,0.693c0.091,0.214,0.21,0.405,0.358,0.57c0.147,0.165,0.318,0.293,0.514,0.388
		c0.192,0.093,0.393,0.14,0.6,0.14c0.22,0,0.429-0.031,0.628-0.089c0.202-0.058,0.394-0.136,0.582-0.236
		c0.186-0.102,0.373-0.214,0.561-0.344c0.187-0.129,0.378-0.268,0.571-0.416V11.234z"/>
	<path fill="#323232" d="M206.135,16.527c0.265,0,0.511-0.04,0.736-0.122c0.224-0.079,0.42-0.187,0.584-0.323
		c0.165-0.136,0.292-0.291,0.384-0.468c0.089-0.178,0.136-0.359,0.136-0.548c0-0.303-0.076-0.569-0.228-0.793
		c-0.151-0.226-0.351-0.427-0.601-0.606c-0.248-0.177-0.53-0.339-0.848-0.489c-0.313-0.147-0.639-0.3-0.968-0.46
		c-0.327-0.155-0.652-0.326-0.966-0.502c-0.316-0.177-0.598-0.387-0.847-0.623c-0.25-0.239-0.45-0.517-0.601-0.829
		c-0.152-0.313-0.229-0.679-0.229-1.1c0-0.393,0.085-0.759,0.252-1.097c0.169-0.338,0.401-0.63,0.702-0.875
		c0.299-0.246,0.656-0.439,1.068-0.576c0.413-0.138,0.864-0.209,1.355-0.209c0.33,0,0.637,0.022,0.92,0.068
		c0.284,0.043,0.562,0.131,0.837,0.261c0.275,0.129,0.548,0.315,0.815,0.556c0.273,0.242,0.56,0.557,0.863,0.944l-0.726,0.647
		c-0.375-0.612-0.791-1.068-1.254-1.37c-0.462-0.299-0.952-0.449-1.475-0.449c-0.286,0-0.542,0.034-0.775,0.102
		c-0.23,0.066-0.43,0.16-0.595,0.28c-0.163,0.12-0.294,0.26-0.387,0.421c-0.094,0.161-0.14,0.332-0.14,0.512
		c0,0.298,0.082,0.555,0.248,0.775c0.164,0.219,0.381,0.417,0.65,0.595c0.272,0.178,0.58,0.34,0.925,0.488
		c0.347,0.15,0.697,0.301,1.055,0.455c0.358,0.157,0.709,0.323,1.055,0.504c0.346,0.179,0.654,0.388,0.924,0.623
		c0.272,0.236,0.492,0.509,0.656,0.818c0.163,0.311,0.246,0.672,0.246,1.084c0,0.419-0.08,0.811-0.233,1.175
		c-0.155,0.365-0.387,0.681-0.703,0.949c-0.311,0.268-0.702,0.479-1.176,0.632c-0.471,0.158-1.023,0.234-1.664,0.234
		c-0.29,0-0.587-0.024-0.893-0.068c-0.309-0.045-0.616-0.135-0.925-0.266c-0.312-0.133-0.621-0.316-0.931-0.557
		c-0.311-0.238-0.612-0.55-0.91-0.938l0.804-0.726c0.238,0.335,0.469,0.621,0.688,0.856c0.219,0.235,0.443,0.429,0.673,0.582
		c0.229,0.15,0.465,0.261,0.706,0.327C205.59,16.495,205.851,16.527,206.135,16.527z"/>
	<path fill="#323232" d="M214.777,3.724h0.561v3.367h2.207v0.843h-2.207v6.978c0,0.147,0.028,0.286,0.084,0.416
		c0.053,0.128,0.127,0.242,0.224,0.338c0.09,0.096,0.202,0.174,0.331,0.227c0.129,0.054,0.271,0.083,0.425,0.083
		c0.221,0,0.42-0.056,0.602-0.166c0.181-0.109,0.34-0.246,0.473-0.405l0.495,0.33c-0.271,0.458-0.622,0.818-1.056,1.083
		c-0.431,0.265-0.967,0.397-1.604,0.397c-0.329,0-0.618-0.057-0.863-0.169c-0.246-0.113-0.445-0.272-0.604-0.475
		c-0.159-0.204-0.277-0.446-0.354-0.727c-0.078-0.28-0.116-0.59-0.116-0.933V7.934h-1.722V7.566l1.722-0.475V4.276L214.777,3.724z"
		/>
	<path fill="#323232" d="M230.792,17.001c-0.259-0.129-0.476-0.311-0.651-0.546c-0.18-0.235-0.267-0.505-0.267-0.809
		c-0.233,0.174-0.46,0.357-0.683,0.542c-0.223,0.188-0.465,0.356-0.726,0.509c-0.262,0.152-0.553,0.276-0.872,0.373
		c-0.317,0.096-0.688,0.145-1.106,0.145c-0.389,0-0.737-0.063-1.051-0.189c-0.313-0.127-0.578-0.298-0.793-0.519
		c-0.217-0.219-0.386-0.479-0.505-0.782c-0.118-0.304-0.178-0.63-0.178-0.979c0-0.425,0.082-0.81,0.252-1.149
		c0.168-0.343,0.397-0.648,0.691-0.916c0.292-0.268,0.634-0.505,1.021-0.716c0.389-0.209,0.8-0.397,1.239-0.562
		c0.438-0.163,0.89-0.312,1.354-0.441c0.465-0.128,0.915-0.248,1.355-0.357v-0.62c0-0.452-0.033-0.831-0.096-1.143
		c-0.066-0.307-0.166-0.559-0.302-0.749c-0.137-0.189-0.307-0.327-0.517-0.407c-0.21-0.082-0.461-0.121-0.75-0.121
		c-0.279,0-0.534,0.055-0.766,0.165c-0.231,0.109-0.437,0.256-0.614,0.441c-0.178,0.181-0.324,0.399-0.436,0.647
		c-0.113,0.247-0.188,0.512-0.229,0.789h-1.801c0.054-0.427,0.199-0.806,0.441-1.143c0.242-0.336,0.549-0.618,0.916-0.846
		c0.368-0.229,0.783-0.406,1.252-0.529c0.467-0.122,0.954-0.183,1.457-0.183c0.646,0,1.188,0.063,1.627,0.189
		c0.438,0.125,0.789,0.301,1.054,0.527c0.265,0.225,0.452,0.502,0.565,0.829c0.114,0.326,0.168,0.684,0.168,1.079v6.114
		c0,0.304,0.091,0.574,0.27,0.809c0.176,0.235,0.394,0.417,0.652,0.546H230.792z M229.874,11.234
		c-0.284,0.09-0.578,0.193-0.882,0.31c-0.303,0.117-0.601,0.247-0.889,0.393c-0.292,0.145-0.569,0.301-0.834,0.469
		s-0.496,0.348-0.695,0.541c-0.2,0.194-0.359,0.397-0.476,0.611c-0.115,0.212-0.174,0.436-0.174,0.667
		c0,0.246,0.046,0.475,0.135,0.693c0.092,0.214,0.211,0.405,0.359,0.57s0.318,0.293,0.513,0.388c0.192,0.093,0.394,0.14,0.6,0.14
		c0.219,0,0.429-0.031,0.63-0.089c0.199-0.058,0.394-0.136,0.58-0.236c0.188-0.102,0.374-0.214,0.561-0.344
		c0.188-0.129,0.378-0.268,0.572-0.416V11.234z"/>
	<path fill="#323232" d="M238.022,16.527c0.265,0,0.511-0.04,0.735-0.122c0.226-0.079,0.421-0.187,0.586-0.323
		c0.164-0.136,0.291-0.291,0.383-0.468c0.089-0.178,0.135-0.359,0.135-0.548c0-0.303-0.077-0.569-0.228-0.793
		c-0.151-0.226-0.351-0.427-0.599-0.606c-0.251-0.177-0.532-0.339-0.849-0.489c-0.316-0.147-0.639-0.3-0.966-0.46
		c-0.331-0.155-0.652-0.326-0.968-0.502c-0.317-0.177-0.601-0.387-0.849-0.623c-0.249-0.239-0.448-0.517-0.602-0.829
		c-0.15-0.313-0.227-0.679-0.227-1.1c0-0.393,0.084-0.759,0.253-1.097c0.168-0.338,0.401-0.63,0.7-0.875
		c0.302-0.246,0.657-0.439,1.07-0.576c0.413-0.138,0.866-0.209,1.354-0.209c0.331,0,0.636,0.022,0.921,0.068
		c0.282,0.043,0.562,0.131,0.836,0.261c0.275,0.129,0.546,0.315,0.818,0.556c0.271,0.242,0.557,0.557,0.861,0.944l-0.726,0.647
		c-0.374-0.612-0.794-1.068-1.254-1.37c-0.462-0.299-0.953-0.449-1.475-0.449c-0.286,0-0.543,0.034-0.775,0.102
		c-0.233,0.066-0.43,0.16-0.596,0.28c-0.163,0.12-0.293,0.26-0.387,0.421c-0.093,0.161-0.141,0.332-0.141,0.512
		c0,0.298,0.083,0.555,0.247,0.775c0.164,0.219,0.383,0.417,0.653,0.595c0.271,0.178,0.578,0.34,0.925,0.488
		c0.344,0.15,0.696,0.301,1.055,0.455c0.356,0.157,0.709,0.323,1.056,0.504c0.344,0.179,0.652,0.388,0.923,0.623
		c0.271,0.236,0.49,0.509,0.654,0.818c0.165,0.311,0.246,0.672,0.246,1.084c0,0.419-0.077,0.811-0.232,1.175
		c-0.154,0.365-0.389,0.681-0.701,0.949c-0.312,0.268-0.705,0.479-1.178,0.632c-0.469,0.158-1.023,0.234-1.663,0.234
		c-0.291,0-0.588-0.024-0.895-0.068c-0.308-0.045-0.615-0.135-0.925-0.266c-0.311-0.133-0.619-0.316-0.931-0.557
		c-0.309-0.238-0.612-0.55-0.907-0.938l0.802-0.726c0.24,0.335,0.467,0.621,0.688,0.856c0.22,0.235,0.443,0.429,0.674,0.582
		c0.229,0.15,0.464,0.261,0.706,0.327C237.477,16.495,237.738,16.527,238.022,16.527z"/>
	<path fill="#323232" d="M244.585,3.298c0-0.155,0.027-0.3,0.086-0.436c0.058-0.134,0.139-0.254,0.242-0.357
		c0.104-0.103,0.224-0.186,0.357-0.242c0.136-0.059,0.281-0.087,0.437-0.087s0.3,0.028,0.436,0.087
		c0.134,0.057,0.255,0.139,0.356,0.242c0.104,0.103,0.186,0.223,0.242,0.357c0.06,0.135,0.088,0.28,0.088,0.436
		c0,0.156-0.028,0.3-0.088,0.436c-0.057,0.136-0.138,0.254-0.242,0.358c-0.102,0.104-0.223,0.184-0.356,0.242
		c-0.136,0.059-0.28,0.087-0.436,0.087s-0.301-0.028-0.437-0.087c-0.134-0.058-0.253-0.138-0.357-0.242
		c-0.104-0.104-0.185-0.223-0.242-0.358C244.612,3.598,244.585,3.454,244.585,3.298z M244.738,7.469l1.385-0.561h0.57v10.093h-1.955
		V7.469z"/>
	<path fill="#323232" d="M256.477,17.001c-0.258-0.129-0.475-0.311-0.652-0.546c-0.18-0.235-0.266-0.505-0.266-0.809
		c-0.232,0.174-0.46,0.357-0.684,0.542c-0.222,0.188-0.464,0.356-0.724,0.509c-0.265,0.152-0.554,0.276-0.874,0.373
		c-0.317,0.096-0.687,0.145-1.106,0.145c-0.388,0-0.737-0.063-1.051-0.189c-0.312-0.127-0.578-0.298-0.794-0.519
		c-0.214-0.219-0.384-0.479-0.503-0.782s-0.177-0.63-0.177-0.979c0-0.425,0.082-0.81,0.25-1.149
		c0.168-0.343,0.397-0.648,0.691-0.916c0.293-0.268,0.636-0.505,1.022-0.716c0.386-0.209,0.798-0.397,1.237-0.562
		c0.438-0.163,0.89-0.312,1.354-0.441c0.466-0.128,0.917-0.248,1.356-0.357v-0.62c0-0.452-0.033-0.831-0.097-1.143
		c-0.066-0.307-0.166-0.559-0.302-0.749c-0.135-0.189-0.307-0.327-0.517-0.407c-0.21-0.082-0.46-0.121-0.75-0.121
		c-0.278,0-0.534,0.055-0.766,0.165c-0.23,0.109-0.437,0.256-0.614,0.441c-0.177,0.181-0.323,0.399-0.435,0.647
		c-0.114,0.247-0.188,0.512-0.229,0.789h-1.799c0.053-0.427,0.198-0.806,0.44-1.143c0.242-0.336,0.547-0.618,0.915-0.846
		c0.368-0.229,0.784-0.406,1.253-0.529c0.468-0.122,0.953-0.183,1.456-0.183c0.646,0,1.188,0.063,1.627,0.189
		c0.438,0.125,0.789,0.301,1.055,0.527c0.264,0.225,0.453,0.502,0.565,0.829c0.114,0.326,0.169,0.684,0.169,1.079v6.114
		c0,0.304,0.089,0.574,0.267,0.809c0.177,0.235,0.396,0.417,0.653,0.546H256.477z M255.559,11.234
		c-0.284,0.09-0.579,0.193-0.881,0.31c-0.303,0.117-0.602,0.247-0.89,0.393c-0.292,0.145-0.568,0.301-0.834,0.469
		s-0.497,0.348-0.696,0.541c-0.2,0.194-0.359,0.397-0.475,0.611c-0.115,0.212-0.173,0.436-0.173,0.667
		c0,0.246,0.044,0.475,0.134,0.693c0.091,0.214,0.21,0.405,0.358,0.57s0.318,0.293,0.515,0.388c0.191,0.093,0.392,0.14,0.599,0.14
		c0.218,0,0.428-0.031,0.63-0.089c0.2-0.058,0.392-0.136,0.58-0.236c0.187-0.102,0.373-0.214,0.561-0.344
		c0.187-0.129,0.378-0.268,0.572-0.416V11.234z"/>
</g>
<g>
	<path fill="#FF7000" d="M15.313,15.922c-1.038,0.541-2.12,0.931-3.248,1.172c-1.128,0.241-2.278,0.362-3.451,0.362
		c-1.247,0-2.398-0.196-3.45-0.587c-1.053-0.39-1.962-0.95-2.729-1.68c-0.766-0.729-1.364-1.612-1.792-2.65
		C0.214,11.502,0,10.344,0,9.067c0-1.279,0.214-2.436,0.643-3.474c0.429-1.037,1.026-1.921,1.792-2.65
		c0.767-0.729,1.677-1.289,2.729-1.68c1.052-0.391,2.203-0.586,3.45-0.586c1.278,0,2.455,0.154,3.53,0.462
		c1.075,0.308,2.018,0.838,2.831,1.591l-2.48,2.706c-0.482-0.497-1.023-0.873-1.624-1.127c-0.602-0.256-1.353-0.384-2.256-0.384
		c-0.752,0-1.432,0.128-2.041,0.384C5.965,4.563,5.442,4.92,5.006,5.379C4.57,5.838,4.236,6.382,4.003,7.015
		C3.77,7.646,3.653,8.33,3.653,9.067c0,0.75,0.116,1.439,0.35,2.062c0.233,0.625,0.567,1.166,1.003,1.623
		c0.436,0.46,0.958,0.817,1.567,1.072c0.609,0.257,1.289,0.384,2.041,0.384c0.767,0,1.429-0.087,1.985-0.26
		c0.556-0.172,0.999-0.35,1.33-0.53v-2.593H9.066V7.577h6.247V15.922z"/>
	<path fill="#FF7000" d="M17.568,11.569c0-0.871,0.158-1.661,0.473-2.368c0.316-0.707,0.749-1.311,1.297-1.815
		c0.549-0.503,1.196-0.891,1.939-1.162c0.745-0.27,1.538-0.405,2.379-0.405s1.635,0.135,2.38,0.405
		c0.744,0.271,1.39,0.659,1.939,1.162c0.548,0.504,0.981,1.109,1.297,1.815c0.316,0.707,0.474,1.497,0.474,2.368
		c0,0.873-0.158,1.661-0.474,2.368c-0.316,0.707-0.749,1.312-1.297,1.815c-0.549,0.504-1.195,0.891-1.939,1.162
		c-0.745,0.271-1.538,0.406-2.38,0.406s-1.635-0.135-2.379-0.406c-0.744-0.271-1.39-0.657-1.939-1.162
		c-0.548-0.504-0.98-1.108-1.297-1.815C17.726,13.23,17.568,12.442,17.568,11.569z M20.951,11.569c0,0.827,0.237,1.496,0.71,2.008
		c0.474,0.511,1.139,0.766,1.996,0.766c0.857,0,1.522-0.255,1.996-0.766c0.473-0.512,0.71-1.181,0.71-2.008
		c0-0.826-0.237-1.496-0.71-2.007c-0.474-0.511-1.139-0.767-1.996-0.767c-0.857,0-1.522,0.256-1.996,0.767
		S20.951,10.743,20.951,11.569z"/>
	<path fill="#FF7000" d="M43.231,17.05H40.12v-1.443h-0.045c-0.136,0.195-0.312,0.395-0.53,0.597s-0.474,0.388-0.766,0.552
		c-0.293,0.166-0.617,0.3-0.97,0.407c-0.353,0.104-0.718,0.157-1.094,0.157c-0.812,0-1.548-0.139-2.21-0.417
		c-0.662-0.279-1.229-0.669-1.703-1.173c-0.474-0.503-0.838-1.101-1.094-1.793c-0.255-0.691-0.383-1.451-0.383-2.277
		c0-0.768,0.116-1.5,0.35-2.199c0.232-0.699,0.563-1.319,0.992-1.861c0.429-0.541,0.951-0.972,1.568-1.296
		c0.616-0.323,1.315-0.485,2.097-0.485c0.707,0,1.365,0.109,1.974,0.326c0.609,0.22,1.108,0.591,1.5,1.118h0.046V0h3.382V17.05z
		 M40.12,11.569c0-0.826-0.238-1.496-0.711-2.007s-1.138-0.767-1.996-0.767c-0.857,0-1.522,0.256-1.995,0.767
		c-0.474,0.511-0.711,1.181-0.711,2.007c0,0.827,0.237,1.496,0.711,2.008c0.473,0.511,1.138,0.766,1.995,0.766
		c0.858,0,1.523-0.255,1.996-0.766C39.882,13.065,40.12,12.396,40.12,11.569z"/>
	<path fill="#FF7000" d="M45.982,0h3.382v17.05h-3.382V0z"/>
	<path fill="#FF7000" d="M58.115,18.83c-0.226,0.587-0.444,1.107-0.654,1.558c-0.211,0.451-0.478,0.83-0.8,1.139
		c-0.324,0.307-0.733,0.54-1.23,0.698c-0.495,0.157-1.149,0.237-1.961,0.237c-0.873,0-1.714-0.136-2.526-0.406l0.452-2.774
		c0.511,0.226,1.037,0.339,1.579,0.339c0.375,0,0.684-0.042,0.924-0.123c0.241-0.083,0.44-0.204,0.598-0.362
		c0.158-0.157,0.289-0.349,0.395-0.574c0.105-0.226,0.218-0.489,0.338-0.791l0.249-0.631L50.673,6.089h3.653l2.819,7.24h0.045
		l2.413-7.24h3.473L58.115,18.83z"/>
	<path fill="#FF7000" d="M71.443,1.083h5.931c0.827,0,1.608,0.076,2.346,0.226c0.736,0.149,1.379,0.409,1.928,0.777
		c0.549,0.37,0.984,0.866,1.308,1.49c0.324,0.623,0.485,1.41,0.485,2.356c0,0.933-0.149,1.714-0.451,2.345
		c-0.3,0.631-0.713,1.135-1.24,1.512c-0.525,0.376-1.15,0.642-1.871,0.8c-0.722,0.157-1.504,0.237-2.346,0.237h-2.571v6.225h-3.518
		V1.083z M74.961,7.848h2.346c0.316,0,0.62-0.03,0.913-0.09c0.294-0.06,0.556-0.161,0.789-0.304
		c0.233-0.144,0.422-0.339,0.563-0.586c0.144-0.249,0.215-0.56,0.215-0.936c0-0.407-0.094-0.732-0.281-0.981
		c-0.188-0.248-0.429-0.44-0.723-0.575c-0.293-0.135-0.619-0.223-0.981-0.26c-0.36-0.036-0.706-0.056-1.036-0.056h-1.805V7.848z"/>
	<path fill="#FF7000" d="M85.268,0h3.383v17.05h-3.383V0z"/>
	<path fill="#FF7000" d="M97.964,15.673H97.92c-0.377,0.587-0.878,1.008-1.501,1.264c-0.624,0.256-1.281,0.383-1.973,0.383
		c-0.512,0-1.004-0.071-1.478-0.214c-0.474-0.142-0.891-0.356-1.252-0.642c-0.36-0.286-0.646-0.639-0.856-1.061
		c-0.21-0.42-0.316-0.909-0.316-1.466c0-0.631,0.116-1.165,0.35-1.6c0.233-0.437,0.549-0.797,0.946-1.083
		c0.399-0.286,0.854-0.508,1.366-0.666c0.511-0.158,1.041-0.274,1.59-0.35c0.548-0.075,1.097-0.12,1.646-0.135
		c0.55-0.015,1.057-0.023,1.522-0.023c0-0.601-0.214-1.078-0.644-1.432c-0.428-0.354-0.935-0.53-1.521-0.53
		c-0.556,0-1.062,0.117-1.522,0.349c-0.459,0.234-0.868,0.554-1.229,0.959l-1.805-1.85c0.632-0.585,1.368-1.025,2.211-1.319
		c0.841-0.292,1.713-0.439,2.615-0.439c0.993,0,1.808,0.124,2.447,0.372c0.639,0.248,1.15,0.612,1.534,1.094
		c0.383,0.482,0.649,1.071,0.801,1.771c0.149,0.698,0.226,1.506,0.226,2.423v5.571h-3.113V15.673z M97.13,12.246
		c-0.257,0-0.575,0.012-0.958,0.035c-0.384,0.021-0.753,0.085-1.106,0.19c-0.354,0.105-0.653,0.264-0.901,0.474
		c-0.248,0.211-0.372,0.504-0.372,0.879c0,0.407,0.173,0.708,0.519,0.902c0.346,0.196,0.707,0.292,1.082,0.292
		c0.332,0,0.65-0.043,0.959-0.134c0.308-0.091,0.583-0.218,0.823-0.384c0.24-0.164,0.432-0.375,0.575-0.632
		c0.143-0.255,0.214-0.555,0.214-0.902v-0.721H97.13z"/>
	<path fill="#FF7000" d="M109.511,18.83c-0.226,0.587-0.444,1.107-0.655,1.558c-0.21,0.451-0.478,0.83-0.799,1.139
		c-0.324,0.307-0.733,0.54-1.23,0.698c-0.495,0.157-1.149,0.237-1.962,0.237c-0.872,0-1.714-0.136-2.525-0.406l0.451-2.774
		c0.511,0.226,1.037,0.339,1.578,0.339c0.375,0,0.685-0.042,0.925-0.123c0.24-0.083,0.439-0.204,0.598-0.362
		c0.158-0.157,0.289-0.349,0.395-0.574s0.218-0.489,0.338-0.791l0.249-0.631l-4.804-11.051h3.653l2.818,7.24h0.046l2.412-7.24h3.474
		L109.511,18.83z"/>
</g>
</svg>
